[Header]
FileType HTR
DataType HTRS
FileVersion 1
NumSegments 22
NumFrames 4
DataFrameRate 24
EulerRotationOrder ZYX
CalibrationUnits mm
RotationUnits Degrees
GlobalAxisofGravity Y
BoneLengthAxis Y
ScaleFactor 1.0
[SegmentNames&Hierarchy]
reference	GLOBAL
Hips	reference
Spine	Hips
Spine1	Spine
Neck	Spine1
Head	Neck
LeftShoulder	Spine1
LeftArm	LeftShoulder
LeftForeArm	LeftArm
LeftHand	LeftForeArm
RightShoulder	Spine1
RightArm	RightShoulder
RightForeArm	RightArm
RightHand	RightForeArm
LeftUpLeg	Hips
LeftLeg	LeftUpLeg
LeftFoot	LeftLeg
LeftToeBase	LeftFoot
RightUpLeg	Hips
RightLeg	RightUpLeg
RightFoot	RightLeg
RightToeBase	RightFoot
[BasePosition]
reference	0	0	0	0	0	0	1
Hips	0	0	0	0	0	0	1
Spine	0	0	0	0	-0	90	1
Spine1	0	0	0	0	0	0	1
Neck	0	0	0	-7.352327771	-7.352327771	90	1
Head	0	0	0	0	-0	90	1
LeftShoulder	0	0	0	0	0	0	1
LeftArm	0	0	0	0	0	0	1
LeftForeArm	0	0	0	0	0	0	1
LeftHand	0	0	0	0	0	0	1
RightShoulder	0	0	0	0	-0	180	1
RightArm	0	0	0	0	-0	180	1
RightForeArm	0	0	0	0	-0	180	1
RightHand	0	0	0	0	-0	180	1
LeftUpLeg	0	0	0	0	-0	-90	1
LeftLeg	0	0	0	0	-0	-90	1
LeftFoot	0	0	0	66.57146043	-66.57146043	-90	1
LeftToeBase	0	0	0	0	-90	0	1
RightUpLeg	0	0	0	0	-0	-90	1
RightLeg	0	0	0	0	-0	-90	1
RightFoot	0	0	0	66.57146043	-66.57146043	-90	1
RightToeBase	0	0	0	0	-90	0	1
[reference]
64	0	0	0	0	-0	0	1.0
65	0	0	0	0	-0	0	1.0
66	0	0	0	0	-0	0	1.0
67	0	0	0	0	-0	0	1.0
[Hips]
64	-2.318946838	8.280073166	-3.285122395	-0.7472305298	-137.4723511	1.357883453	1.0
65	-2.606573582	8.223812103	-3.435031414	0.1967575699	-138.0806885	-0.2447035164	1.0
66	-2.862566948	8.125974655	-3.57977581	0.7322199345	-138.964386	-2.553234577	1.0
67	-3.072309971	8.050887108	-3.697569847	1.198303223	-139.2817383	-3.289367676	1.0
[Spine]
64	0	0.7457100153	0	-6.257748604	6.667342186	-86.93647003	1.0
65	0	0.7457100153	0	-6.336236954	5.935125351	-87.74979401	1.0
66	0	0.7457100153	0	-5.668575287	4.937195778	-89.26675415	1.0
67	0	0.7457100153	0	-5.549229622	3.421977043	-90.02030182	1.0
[Spine1]
64	0	2.140589952	0	7.634306908	2.316084862	-1.093821049	1.0
65	0	2.140589952	0	7.953444004	2.063435078	-1.819554567	1.0
66	0	2.140589952	0	8.752930641	1.785604835	-2.171136856	1.0
67	0	2.140589952	0	10.35903454	1.338988543	-2.305590868	1.0
[Neck]
64	0	2.32246995	0	-13.68153763	11.52219486	-92.54324341	1.0
65	0	2.32246995	0	-13.25579643	11.77852058	-92.82496643	1.0
66	0	2.32246995	0	-14.05195999	12.26954937	-92.57624054	1.0
67	0	2.32246995	0	-14.17819214	12.02620411	-92.42559052	1.0
[Head]
64	0	1.409579992	0.1818799973	-2.454207897	4.805989265	-92.88964844	1.0
65	0	1.409579992	0.1818799973	-2.752467155	4.878176212	-91.15119934	1.0
66	0	1.409579992	0.1818799973	-3.813421726	5.361865044	-91.02041626	1.0
67	0	1.409579992	0.1818799973	-6.051643372	5.147547722	-92.09292603	1.0
[LeftShoulder]
64	0.3668199778	1.946700096	-0.02662999928	-10.48150826	-11.15941238	0.523411274	1.0
65	0.3668199778	1.946700096	-0.02662999928	-11.0965929	-11.37341976	0.7090194225	1.0
66	0.3668199778	1.946700096	-0.02662999928	-10.67840958	-11.81888866	-0.5432013273	1.0
67	0.3668199778	1.946700096	-0.02662999928	-11.78685474	-12.43094349	-1.832431793	1.0
[LeftArm]
64	1.140689969	0	0	22.95947647	26.91584778	-68.3842926	1.0
65	1.140689969	0	0	27.26892662	26.56864166	-70.66542053	1.0
66	1.140689969	0	0	29.83691788	24.42372704	-71.05291748	1.0
67	1.140689969	0	0	35.0969429	21.35024452	-71.55880737	1.0
[LeftForeArm]
64	2.749800205	0	0	-10.4137001	1.022693753	-5.625395298	1.0
65	2.749800205	0	0	-12.41925335	-1.465596437	-5.102571964	1.0
66	2.749800205	0	0	-13.27470589	-5.144617081	-4.476096153	1.0
67	2.749800205	0	0	-14.16725636	-8.014183044	-3.363187551	1.0
[LeftHand]
64	2.295179844	0	0	-9.985674858	6.706074715	6.434640884	1.0
65	2.295179844	0	0	-12.4730711	3.204273939	0.3693822026	1.0
66	2.295179844	0	0	-13.43764687	-1.09596169	-4.060531616	1.0
67	2.295179844	0	0	-14.29130077	-3.236412287	-3.948937178	1.0
[RightShoulder]
64	-0.3601199985	1.946700096	-0.02662999928	-9.717345238	6.418545723	172.5514221	1.0
65	-0.3601199985	1.946700096	-0.02662999928	-9.094901085	5.51927042	173.1753387	1.0
66	-0.3601199985	1.946700096	-0.02662999928	-9.0260849	5.381292343	173.5920105	1.0
67	-0.3601199985	1.946700096	-0.02662999928	-9.176994324	5.475558281	173.9838104	1.0
[RightArm]
64	-1.140689969	0	0	69.09197998	9.798612595	-92.38077545	1.0
65	-1.140689969	0	0	69.39431763	7.429013729	-90.25165558	1.0
66	-1.140689969	0	0	67.85600281	5.835127354	-89.59401703	1.0
67	-1.140689969	0	0	64.20100403	5.200823784	-90.66714478	1.0
[RightForeArm]
64	-2.749800205	0	0	3.413105011	33.80557251	173.4376526	1.0
65	-2.749800205	0	0	-2.726509094	25.74437332	170.7479248	1.0
66	-2.749800205	0	0	-3.561489344	18.31028748	170.709137	1.0
67	-2.749800205	0	0	-5.348799229	12.6839447	173.3764038	1.0
[RightHand]
64	-2.295179844	0	0	3.638868809	15.4085722	166.7588806	1.0
65	-2.295179844	0	0	-1.826008677	12.41947651	168.845871	1.0
66	-2.295179844	0	0	-3.068436861	10.37797165	168.7793274	1.0
67	-2.295179844	0	0	-5.413088799	7.378559589	167.8349915	1.0
[LeftUpLeg]
64	0.9094099998	0	0	-14.78637791	1.964725137	88.19315338	1.0
65	0.9094099998	0	0	-14.57323074	-0.5246323943	87.2513504	1.0
66	0.9094099998	0	0	-14.84419537	-0.9921092391	86.12908173	1.0
67	0.9094099998	0	0	-14.62474632	1.269521236	84.03507996	1.0
[LeftLeg]
64	0	-4.498080254	0	27.03980637	-8.39621067	83.51085663	1.0
65	0	-4.498080254	0	32.23280334	-9.650434494	79.4156189	1.0
66	0	-4.498080254	0	41.23524475	-18.10305023	67.0075531	1.0
67	0	-4.498080254	0	46.36617279	-20.53570938	63.84299469	1.0
[LeftFoot]
64	0	-3.729400158	0	-88.42427063	114.9372711	-30.246418	1.0
65	0	-3.729400158	0	-80.19432831	116.4080429	-18.39842224	1.0
66	0	-3.729400158	0	-67.02070618	126.6264343	0.2354921699	1.0
67	0	-3.729400158	0	-69.09178925	128.5097656	1.554673195	1.0
[LeftToeBase]
64	0	-0.5911099911	1.364109993	0	0	0	1.0
65	0	-0.5911099911	1.364109993	0	0	0	1.0
66	0	-0.5911099911	1.364109993	0	0	0	1.0
67	0	-0.5911099911	1.364109993	0	0	0	1.0
[RightUpLeg]
64	-0.9094099998	0	0	8.085739136	-14.95726585	87.94636536	1.0
65	-0.9094099998	0	0	2.197126627	-21.49931335	85.82550049	1.0
66	-0.9094099998	0	0	-3.971131325	-17.74922562	85.57435608	1.0
67	-0.9094099998	0	0	-10.58554745	-15.46228409	86.50283813	1.0
[RightLeg]
64	0	-4.498080254	0	35.69565964	-2.907407761	79.96160889	1.0
65	0	-4.498080254	0	47.49163818	-5.856620312	63.11573029	1.0
66	0	-4.498080254	0	61.41467667	6.332468987	74.36122131	1.0
67	0	-4.498080254	0	69.61392975	6.469591141	69.37918854	1.0
[RightFoot]
64	0	-3.729400158	0	91.39665985	46.50400925	136.7845764	1.0
65	0	-3.729400158	0	115.5313568	31.10089302	148.6756592	1.0
66	0	-3.729400158	0	86.58856201	46.77838135	122.1192169	1.0
67	0	-3.729400158	0	83.92097473	52.20630646	121.7784348	1.0
[RightToeBase]
64	0	-0.5911099911	1.364109993	0	0	0	1.0
65	0	-0.5911099911	1.364109993	0	0	0	1.0
66	0	-0.5911099911	1.364109993	0	0	0	1.0
67	0	-0.5911099911	1.364109993	0	0	0	1.0
[EndOfFile]
